# xmcd
#
# Track frame offsets:
#	150
#	12623
#	24867
#	37360
#	51927
#	68242
#	81856
#	92207
#	105884
#	116645
#	133637
#	145870
#	157508
#	171616
#	181197
#
# Disc length: 2574 seconds
#
# Revision: 0
# Processed by: cddbd v1.5.2PL0 Copyright (c) Steve Scherf et al.
# Submitted via: EZCDAudioConverter 7.1.5.1
#
DISCID=c60a0c0f
DTITLE=Various Artist - Volkstümliche Hüttengaudi CD2
DYEAR=1900
DGENRE=
TTITLE0=Alpenrebellen - Rock mi
TTITLE1=Trio Alpin - Die Berg hab n an Gipfl
TTITLE2=Die Fetzig n Zillertaler - A Rucksack voller Schneid
TTITLE3=Alex Pezzei - Dahoam is Dahoum
TTITLE4=Joe Williams Band - Brenna tuats guat
TTITLE5=Zillertaler Power - Hey Madl
TTITLE6=Sepp Mattlschweigers Quinttett - Juchee auf der hohen Alm
TTITLE7=Heimatland Quintett - A Bergler braucht an Berg
TTITLE8=Die Edlseer - Steirermen san very goot
TTITLE9=Goldried Quintett - Der Paul un dein Gaul
TTITLE10=Die Grubertaler - Jeder Topf find sein Deckel
TTITLE11=Gery der Klostertaler - Himmerlhoch und High (Wilde Gams)
TTITLE12=Zellberg Buam - Auf der Zillertaler Höhenstrass
TTITLE13=Ursprung Buam - Nagellied (Zimmermannslied
TTITLE14=Petra Böck - Goassbock Jodler
EXTD=
EXTT0=
EXTT1=
EXTT2=
EXTT3=
EXTT4=
EXTT5=
EXTT6=
EXTT7=
EXTT8=
EXTT9=
EXTT10=
EXTT11=
EXTT12=
EXTT13=
EXTT14=
PLAYORDER=
